<svg xmlns="http://www.w3.org/2000/svg" viewBox="0 0 128 128" fill="none">
  <!-- Background circle -->
  <circle cx="64" cy="64" r="60" fill="#1c1c1c" stroke="#3ecf8e" stroke-width="2"/>

  <!-- Node 1 (top-left) -->
  <rect x="20" y="28" width="32" height="22" rx="6" fill="rgba(62, 207, 142, 0.2)" stroke="#3ecf8e" stroke-width="1.5"/>
  <circle cx="52" cy="39" r="3" fill="#3ecf8e"/>

  <!-- Node 2 (top-right) -->
  <rect x="76" y="20" width="32" height="22" rx="6" fill="rgba(0, 144, 255, 0.2)" stroke="#0090ff" stroke-width="1.5"/>
  <circle cx="76" cy="31" r="3" fill="#0090ff"/>

  <!-- Node 3 (center) -->
  <rect x="42" y="53" width="44" height="26" rx="6" fill="rgba(157, 78, 221, 0.2)" stroke="#9d4edd" stroke-width="1.5"/>
  <circle cx="42" cy="66" r="3" fill="#9d4edd"/>
  <circle cx="86" cy="66" r="3" fill="#9d4edd"/>

  <!-- Node 4 (bottom) -->
  <rect x="32" y="88" width="36" height="22" rx="6" fill="rgba(249, 199, 79, 0.2)" stroke="#f9c74f" stroke-width="1.5"/>
  <circle cx="50" cy="88" r="3" fill="#f9c74f"/>

  <!-- Edge: Node1 -> Node3 -->
  <path d="M52 39 C60 39, 42 55, 42 66" stroke="#3ecf8e" stroke-width="1.5" fill="none" opacity="0.6"/>

  <!-- Edge: Node2 -> Node3 -->
  <path d="M76 31 C68 31, 86 53, 86 66" stroke="#0090ff" stroke-width="1.5" fill="none" opacity="0.6"/>

  <!-- Edge: Node3 -> Node4 -->
  <path d="M64 79 C64 83, 50 84, 50 88" stroke="#9d4edd" stroke-width="1.5" fill="none" opacity="0.6"/>
</svg>
